<svg xmlns="http://www.w3.org/2000/svg" width="180" height="35" viewBox="0 0 180 35" fill="none"><path d="M57.6156 22.8047C55.0091 22.8047 53.4812 20.6656 53.4812 18.2433C53.4812 15.4436 55.2189 13.5876 57.6156 13.5876C58.8739 13.5876 59.7128 14.1224 60.4918 14.6257L61.75 12.2664C60.8513 11.6687 59.3533 10.9452 57.7654 10.9452C53.631 10.9452 50.665 14.028 50.665 18.2433C50.665 22.4272 53.6909 25.5415 57.7654 25.5415C59.5031 25.5415 60.7614 24.7865 61.75 24.1574L60.4918 21.7981C59.7128 22.3643 58.5444 22.8047 57.6156 22.8047ZM66.4537 4.49634H69.1201V25.164H66.4537V4.49634ZM84.4894 11.3856L84.1898 12.581C83.4708 11.7631 81.9429 10.9452 80.325 10.9452C77.0295 10.9452 74.0036 13.682 74.0036 18.1489C74.0036 22.7732 77.0295 25.573 80.325 25.573C81.9429 25.573 83.4109 24.7551 84.1898 23.9372L84.4894 25.1955H86.7364V11.48H84.4894V11.3856ZM84.2497 18.3377C84.2497 21.4835 82.4222 22.899 80.6845 22.899C78.917 22.899 76.8797 21.6408 76.8797 18.1804C76.8797 15.9784 77.9882 13.619 80.4748 13.619C82.3623 13.619 84.2497 15.2234 84.2497 18.1804V18.3377ZM96.2636 19.4387C98.0911 19.9421 98.87 20.3196 98.87 21.2948C98.87 22.0498 98.2409 22.8361 96.7729 22.8361C95.4247 22.8361 94.3162 22.3329 93.2677 21.7352L92.0693 24.0945C92.998 24.6922 95.0652 25.5101 96.7729 25.5101C99.709 25.5101 101.416 23.4338 101.416 21.3262C101.416 17.7085 98.0312 17.1424 97.1324 16.8278C95.2449 16.293 94.7656 15.884 94.7656 15.0661C94.7656 14.1853 95.4846 13.5876 96.8628 13.5876C98.0611 13.5876 98.9599 13.9651 99.7993 14.4055L101.057 12.0462C99.8588 11.5114 98.4506 10.9452 96.8628 10.9452C93.9866 10.9452 92.249 13.0843 92.249 15.0661C92.249 18.2433 94.7955 19.0612 96.2636 19.4387ZM110.554 19.4387C112.382 19.9421 113.16 20.3196 113.16 21.2948C113.16 22.0498 112.531 22.8361 111.063 22.8361C109.715 22.8361 108.607 22.3329 107.558 21.7352L106.36 24.0945C107.288 24.6922 109.356 25.5101 111.063 25.5101C114 25.5101 115.707 23.4338 115.707 21.3262C115.707 17.7085 112.322 17.1424 111.423 16.8278C109.535 16.293 109.056 15.884 109.056 15.0661C109.056 14.1853 109.776 13.5876 111.153 13.5876C112.352 13.5876 113.251 13.9651 114.09 14.4055L115.348 12.0462C114.15 11.5114 112.742 10.9452 111.153 10.9452C108.277 10.9452 106.539 13.0843 106.539 15.0661C106.51 18.2433 109.086 19.0612 110.554 19.4387ZM127.272 10.9452C125.654 10.9452 124.186 11.7631 123.407 12.581L123.108 11.3227H120.861V30.8579H123.377V24.063L123.467 24.0001C124.186 24.818 125.654 25.4786 127.062 25.4786C130.447 25.4786 133.593 23.1822 133.593 18.0546C133.653 13.4618 130.628 10.9452 127.272 10.9452ZM126.972 22.899C125.235 22.899 123.407 21.4835 123.407 18.3377V18.1804C123.407 15.1605 125.294 13.619 127.182 13.619C129.698 13.619 130.777 15.9784 130.777 18.1804C130.777 21.6408 128.74 22.899 126.972 22.899ZM148.514 11.3856L148.214 12.6439C147.495 11.826 145.967 11.0081 144.349 11.0081C141.053 11.0081 138.027 13.7449 138.027 18.2119C138.027 22.8361 141.053 25.6359 144.349 25.6359C145.967 25.6359 147.434 24.818 148.214 24.0001L148.514 25.2584H150.761V11.5429H148.514V11.3856ZM148.244 18.3377C148.244 21.4835 146.416 22.899 144.678 22.899C142.91 22.899 140.874 21.6408 140.874 18.1804C140.874 15.9784 141.982 13.619 144.469 13.619C146.356 13.619 148.244 15.2234 148.244 18.1804V18.3377ZM160.287 19.4387C162.115 19.9421 162.894 20.3196 162.894 21.2948C162.894 22.0498 162.265 22.8361 160.796 22.8361C159.448 22.8361 158.34 22.3329 157.291 21.7352L156.093 24.0945C157.022 24.6922 159.089 25.5101 160.796 25.5101C163.733 25.5101 165.44 23.4338 165.44 21.3262C165.44 17.7085 162.055 17.1424 161.156 16.8278C159.269 16.293 158.789 15.884 158.789 15.0661C158.789 14.1853 159.509 13.5876 160.887 13.5876C162.085 13.5876 162.984 13.9651 163.823 14.4055L165.081 12.0462C163.883 11.5114 162.475 10.9452 160.887 10.9452C158.011 10.9452 156.273 13.0843 156.273 15.0661C156.243 18.2433 158.819 19.0612 160.287 19.4387ZM174.548 19.4387C176.376 19.9421 177.154 20.3196 177.154 21.2948C177.154 22.0498 176.526 22.8361 175.057 22.8361C173.709 22.8361 172.601 22.3329 171.552 21.7352L170.354 24.0945C171.282 24.6922 173.35 25.5101 175.057 25.5101C177.994 25.5101 179.701 23.4338 179.701 21.3262C179.701 17.7085 176.316 17.1424 175.417 16.8278C173.529 16.293 173.05 15.884 173.05 15.0661C173.05 14.1853 173.77 13.5876 175.148 13.5876C176.346 13.5876 177.245 13.9651 178.083 14.4055L179.342 12.0462C178.144 11.5114 176.735 10.9452 175.148 10.9452C172.272 10.9452 170.533 13.0843 170.533 15.0661C170.533 18.2433 173.11 19.0612 174.548 19.4387Z" fill="#9E9E9E"></path><path d="M27.8025 0.124268H22.979C22.1402 0.124268 21.3013 0.784789 21.2114 1.66562L20.4924 5.28333C20.4025 5.94385 19.8632 6.38427 19.2341 6.38427H13.9013C6.68101 6.47864 0 12.204 0 20.32C0 27.5553 5.75226 34.1615 14.0212 34.1615H19.4737C20.3126 34.1615 21.1515 33.5008 21.2414 32.62L21.9605 29.0024C22.0503 28.3418 22.5896 27.9014 23.2187 27.9014H27.9224C35.9816 27.9014 41.9435 21.421 41.9435 14.06C41.8236 5.94385 35.2326 0.124268 27.8025 0.124268ZM27.6827 22.5221H22.0204C21.1815 22.5221 20.4624 23.1827 20.2527 24.0635L19.5337 27.5868C19.4438 28.2474 18.9045 28.6878 18.2754 28.6878H14.081C9.7968 28.6878 5.18302 25.5105 5.18302 20.2256C5.18302 15.3811 9.25753 11.7635 14.081 11.7635H20.5523C21.3912 11.7635 22.1103 11.1029 22.32 10.2222L23.0389 6.69885C23.1288 6.03823 23.6681 5.59781 24.2973 5.59781H27.6527C32.1467 5.59781 36.5507 8.90093 36.5507 14.06C36.4908 18.7786 32.626 22.5221 27.6827 22.5221Z" fill="#9E9E9E"></path></svg>